<svg width="1024" height="1024" viewBox="893 730 1610 1400" fill="none" xmlns="http://www.w3.org/2000/svg">
<path d="M2180.53 878.149H2319.67L2229.92 1032L2015.56 1057.88C1992.06 1060.72 1971.22 1074.35 1959.2 1094.74L1694.26 1544.33L1494.46 1187.38C1483.78 1168.29 1465.4 1154.74 1444.01 1150.18L1201.55 1098.47L1076.98 878.149H1188.08L1288.95 1046.63C1306.61 1076.13 1343.65 1087.59 1374.89 1073.22C1410.08 1057.04 1424.4 1014.58 1406.19 980.393L1351.75 878.149L1289.8 768.586C1276.32 744.743 1251.05 730 1223.65 730H960.097C901.915 730 865.319 792.705 893.943 843.351L1096.8 1202.28C1107.3 1220.85 1125.12 1234.15 1145.91 1238.94L1389.67 1295.06L1427.79 1362.48L1337.49 1338.91L1297.58 1328.58C1240.79 1313.88 1194.18 1374.57 1223.04 1425.64L1620.46 2128.82C1647.43 2176.54 1715.95 2177.18 1743.81 2129.97C1756.75 2108.05 1757 2080.9 1744.47 2058.74L1439.74 1519.76L1530.29 1543.78L1739.29 1913.43C1768.07 1964.33 1841.16 1965.01 1870.88 1914.65L1887.61 1886.3L2210.19 1345.22C2233.4 1306.3 2212.86 1256 2169.04 1244.44C2139.81 1236.72 2108.99 1249.18 2093.34 1275.04L1808.27 1745.97L1775.24 1687.54L2060.8 1202.94L2269.26 1179.79C2293.02 1177.15 2314.16 1163.47 2326.31 1142.88L2502.34 844.581C2532.23 793.935 2495.71 730 2436.9 730H2134.51C2106.68 730 2081.07 745.219 2067.76 769.669L2007.52 880.394C1984.17 923.313 2009.56 976.515 2057.62 985.366C2086.05 990.604 2114.86 978.287 2130.71 954.112L2180.53 878.149Z" fill="#244E43"/>
<path d="M1817.7 1135.51C1817.7 1201.07 1764.54 1254.22 1698.97 1254.22C1633.4 1254.22 1580.24 1201.07 1580.24 1135.51C1580.24 1069.95 1633.4 1016.8 1698.97 1016.8C1764.54 1016.8 1817.7 1069.95 1817.7 1135.51Z" fill="#244E43"/>
</svg>
