<svg width="3500" height="3500" viewBox="0 0 3500 3500" fill="none" xmlns="http://www.w3.org/2000/svg">
<path d="M240.428 2720L139.228 2430.8H186.228L268.628 2664L351.028 2430.8H398.228L296.828 2720H240.428ZM461.609 2720V2430.8H510.209V2720H461.609ZM663.759 2720V2474.6H573.759V2430.8H799.359V2474.6H712.559V2720H663.759ZM862.938 2720V2430.8H1054.14L1053.94 2472.6H911.938V2553.6H1037.34V2594.8H911.538V2677.6L1056.94 2677.8V2720H862.938ZM1136.45 2720V2430.8H1187.05V2571L1303.45 2430.8H1360.05L1268.25 2543.6L1369.65 2720H1315.85L1233.25 2579L1187.05 2633.2V2720H1136.45ZM1550.28 2720V2430.8H1739.48L1739.28 2472H1599.68V2555.2H1722.88V2595.8H1599.68V2720H1550.28ZM1812.08 2720V2430.8H1860.68V2720H1812.08ZM2014.23 2720V2474.6H1924.23V2430.8H2149.83V2474.6H2063.03V2720H2014.23ZM2213.41 2720V2430.8H2261.01L2402.61 2637.4V2430.8H2451.21V2720H2407.41L2262.01 2507.8V2720H2213.41ZM2541.22 2720V2430.8H2732.42L2732.22 2472.6H2590.22V2553.6H2715.62V2594.8H2589.82V2677.6L2735.22 2677.8V2720H2541.22ZM2918.53 2724C2904.13 2724 2890.33 2722.27 2877.13 2718.8C2863.93 2715.2 2851.87 2709.93 2840.93 2703C2830.13 2695.93 2821.2 2687.2 2814.13 2676.8C2807.07 2666.27 2802.73 2654 2801.13 2640H2851.53C2853.67 2649.73 2857.87 2657.93 2864.13 2664.6C2870.53 2671.27 2878.6 2676.33 2888.33 2679.8C2898.07 2683.27 2908.93 2685 2920.93 2685C2931.6 2685 2941.53 2683.4 2950.73 2680.2C2959.93 2677 2967.4 2672.27 2973.13 2666C2978.87 2659.6 2981.73 2651.73 2981.73 2642.4C2981.73 2631.87 2978 2623.67 2970.53 2617.8C2963.2 2611.8 2952.67 2607.07 2938.93 2603.6L2882.33 2590.2C2867.67 2586.87 2854.87 2582 2843.93 2575.6C2833.13 2569.2 2824.73 2560.8 2818.73 2550.4C2812.73 2539.87 2809.73 2527 2809.73 2511.8C2809.73 2494.47 2814.47 2479.47 2823.93 2466.8C2833.53 2454.13 2846.53 2444.4 2862.93 2437.6C2879.33 2430.67 2897.8 2427.2 2918.33 2427.2C2941.8 2427.2 2961.6 2431.13 2977.73 2439C2993.87 2446.73 3006.13 2457.13 3014.53 2470.2C3022.93 2483.27 3027.2 2497.6 3027.33 2513.2H2978.13C2977.07 2501.6 2973.67 2492.47 2967.93 2485.8C2962.2 2479 2954.93 2474.07 2946.13 2471C2937.33 2467.93 2927.6 2466.4 2916.93 2466.4C2898 2466.4 2883.93 2470.47 2874.73 2478.6C2865.53 2486.73 2860.93 2496.27 2860.93 2507.2C2860.93 2517.47 2864.33 2525.6 2871.13 2531.6C2877.93 2537.6 2888.33 2542.27 2902.33 2545.6L2956.13 2558.2C2974.13 2561.93 2988.6 2567.67 2999.53 2575.4C3010.47 2583.13 3018.4 2592.33 3023.33 2603C3028.4 2613.53 3030.93 2625.2 3030.93 2638C3030.93 2654.8 3026.13 2669.67 3016.53 2682.6C3007.07 2695.53 2993.93 2705.67 2977.13 2713C2960.33 2720.33 2940.8 2724 2918.53 2724ZM3214.32 2724C3199.92 2724 3186.12 2722.27 3172.92 2718.8C3159.72 2715.2 3147.65 2709.93 3136.72 2703C3125.92 2695.93 3116.98 2687.2 3109.92 2676.8C3102.85 2666.27 3098.52 2654 3096.92 2640H3147.32C3149.45 2649.73 3153.65 2657.93 3159.92 2664.6C3166.32 2671.27 3174.38 2676.33 3184.12 2679.8C3193.85 2683.27 3204.72 2685 3216.72 2685C3227.38 2685 3237.32 2683.4 3246.52 2680.2C3255.72 2677 3263.18 2672.27 3268.92 2666C3274.65 2659.6 3277.52 2651.73 3277.52 2642.4C3277.52 2631.87 3273.78 2623.67 3266.32 2617.8C3258.98 2611.8 3248.45 2607.07 3234.72 2603.6L3178.12 2590.2C3163.45 2586.87 3150.65 2582 3139.72 2575.6C3128.92 2569.2 3120.52 2560.8 3114.52 2550.4C3108.52 2539.87 3105.52 2527 3105.52 2511.8C3105.52 2494.47 3110.25 2479.47 3119.72 2466.8C3129.32 2454.13 3142.32 2444.4 3158.72 2437.6C3175.12 2430.67 3193.58 2427.2 3214.12 2427.2C3237.58 2427.2 3257.38 2431.13 3273.52 2439C3289.65 2446.73 3301.92 2457.13 3310.32 2470.2C3318.72 2483.27 3322.98 2497.6 3323.12 2513.2H3273.92C3272.85 2501.6 3269.45 2492.47 3263.72 2485.8C3257.98 2479 3250.72 2474.07 3241.92 2471C3233.12 2467.93 3223.38 2466.4 3212.72 2466.4C3193.78 2466.4 3179.72 2470.47 3170.52 2478.6C3161.32 2486.73 3156.72 2496.27 3156.72 2507.2C3156.72 2517.47 3160.12 2525.6 3166.92 2531.6C3173.72 2537.6 3184.12 2542.27 3198.12 2545.6L3251.92 2558.2C3269.92 2561.93 3284.38 2567.67 3295.32 2575.4C3306.25 2583.13 3314.18 2592.33 3319.12 2603C3324.18 2613.53 3326.72 2625.2 3326.72 2638C3326.72 2654.8 3321.92 2669.67 3312.32 2682.6C3302.85 2695.53 3289.72 2705.67 3272.92 2713C3256.12 2720.33 3236.58 2724 3214.32 2724Z" fill="white"/>
<path d="M2180.53 878.149H2319.67L2229.92 1032L2015.56 1057.88C1992.06 1060.72 1971.22 1074.35 1959.2 1094.74L1694.26 1544.33L1494.46 1187.38C1483.78 1168.29 1465.4 1154.74 1444.01 1150.18L1201.55 1098.47L1076.98 878.149H1188.08L1288.95 1046.63C1306.61 1076.13 1343.65 1087.59 1374.89 1073.22C1410.08 1057.04 1424.4 1014.58 1406.19 980.393L1351.75 878.149L1289.8 768.586C1276.32 744.743 1251.05 730 1223.65 730H960.097C901.915 730 865.319 792.705 893.943 843.351L1096.8 1202.28C1107.3 1220.85 1125.12 1234.15 1145.91 1238.94L1389.67 1295.06L1427.79 1362.48L1337.49 1338.91L1297.58 1328.58C1240.79 1313.88 1194.18 1374.57 1223.04 1425.64L1620.46 2128.82C1647.43 2176.54 1715.95 2177.18 1743.81 2129.97C1756.75 2108.05 1757 2080.9 1744.47 2058.74L1439.74 1519.76L1530.29 1543.78L1739.29 1913.43C1768.07 1964.33 1841.16 1965.01 1870.88 1914.65L1887.61 1886.3L2210.19 1345.22C2233.4 1306.3 2212.86 1256 2169.04 1244.44C2139.81 1236.72 2108.99 1249.18 2093.34 1275.04L1808.27 1745.97L1775.24 1687.54L2060.8 1202.94L2269.26 1179.79C2293.02 1177.15 2314.16 1163.47 2326.31 1142.88L2502.34 844.581C2532.23 793.935 2495.71 730 2436.9 730H2134.51C2106.68 730 2081.07 745.219 2067.76 769.669L2007.52 880.394C1984.17 923.313 2009.56 976.515 2057.62 985.366C2086.05 990.604 2114.86 978.287 2130.71 954.112L2180.53 878.149Z" fill="white"/>
<path d="M1817.7 1135.51C1817.7 1201.07 1764.54 1254.22 1698.97 1254.22C1633.4 1254.22 1580.24 1201.07 1580.24 1135.51C1580.24 1069.95 1633.4 1016.8 1698.97 1016.8C1764.54 1016.8 1817.7 1069.95 1817.7 1135.51Z" fill="white"/>
</svg>
